:FULLY-SPECIFIED
:FORCE-ALL-JOINTS-BE-3DOF
:DEGREES
421
root 10.0707 16.9147 23.0609 7.08501 -1.06119 -5.45858
lfemur -37.3267 2.15192 -16.2722
ltibia 25.1392 0 0
lfoot -8.82849 8.85049 0
ltoes -10.4226 0 0
rfemur 10.9222 3.74802 28.9927
rtibia 15.8687 0 0
rfoot -5.81966 3.36516 0
rtoes -16.5513 0 0
lowerback -8.06794 2.36211 2.17339
upperback -0.878661 2.76862 3.06803
thorax 3.63115 1.39791 2.33533
lowerneck -19.6962 -5.71192 -12.9397
upperneck 22.2332 -7.287 12.5612
head 11.4901 -2.92583 5.67886
lclavicle -1.10719e-14 -2.00627e-14 0
lhumerus -47.431 -9.68931 94.3552
lradius 25.0849 0 0
lwrist 3.48648 0 0
lhand -7.55017 -21.5336 0
lfingers 7.12502 0 0
lthumb 18.3408 7.61037 0
rclavicle -1.10719e-14 -2.00627e-14 0
rhumerus -34.082 13.0365 -87.171
rradius 37.0184 0 0
rwrist -15.4471 0 0
rhand -29.5596 -25.9446 0
rfingers 7.12502 0 0
rthumb -2.89215 -55.9042 0
422
root 10.0938 16.9324 23.2053 7.0277 -1.00622 -5.21333
lfemur -36.7442 2.20513 -16.6615
ltibia 25.1802 0 0
lfoot -8.9539 8.72149 0
ltoes -10.087 0 0
rfemur 9.95193 3.55152 28.6135
rtibia 17.4556 0 0
rfoot -5.91314 2.997 0
rtoes -16.6435 0 0
lowerback -7.98496 2.25097 2.01346
upperback -0.899348 2.63691 3.01298
thorax 3.56594 1.33144 2.35275
lowerneck -19.739 -5.65903 -12.9046
upperneck 22.2991 -7.20624 12.4998
head 11.5075 -2.89271 5.6651
lclavicle -1.21257e-14 -1.93258e-14 0
lhumerus -46.7405 -9.76029 94.2114
lradius 24.9423 0 0
lwrist 3.22623 0 0
lhand -7.66529 -21.5928 0
lfingers 7.12502 0 0
lthumb 18.23 7.56086 0
rclavicle -1.21257e-14 -1.93258e-14 0
rhumerus -34.4417 12.96 -87.2075
rradius 36.9316 0 0
rwrist -15.357 0 0
rhand -29.587 -26.1318 0
rfingers 7.12502 0 0
rthumb -2.91859 -56.091 0
423
root 10.1169 16.9501 23.3496 6.97038 -0.951241 -4.96808
lfemur -36.1616 2.25833 -17.0507
ltibia 25.2212 0 0
lfoot -9.07932 8.59249 0
ltoes -9.75146 0 0
rfemur 8.98167 3.35502 28.2344
rtibia 19.0425 0 0
rfoot -6.00663 2.62884 0
rtoes -16.7356 0 0
lowerback -7.90199 2.13984 1.85353
upperback -0.920036 2.50521 2.95793
thorax 3.50073 1.26496 2.37018
lowerneck -19.7818 -5.60613 -12.8696
upperneck 22.3651 -7.12548 12.4384
head 11.525 -2.8596 5.65133
lclavicle -1.31795e-14 -1.85888e-14 0
lhumerus -46.0501 -9.83126 94.0677
lradius 24.7997 0 0
lwrist 2.96598 0 0
lhand -7.7804 -21.652 0
lfingers 7.12502 0 0
lthumb 18.1192 7.51135 0
rclavicle -1.31795e-14 -1.85888e-14 0
rhumerus -34.8013 12.8835 -87.2439
rradius 36.8448 0 0
rwrist -15.2668 0 0
rhand -29.6144 -26.3189 0
rfingers 7.12502 0 0
rthumb -2.94504 -56.2777 0
424
root 10.1401 16.9677 23.4939 6.91306 -0.896267 -4.72283
lfemur -35.579 2.31153 -17.44
ltibia 25.2622 0 0
lfoot -9.20473 8.46349 0
ltoes -9.4159 0 0
rfemur 8.01141 3.15851 27.8553
rtibia 20.6294 0 0
rfoot -6.10011 2.26069 0
rtoes -16.8278 0 0
lowerback -7.81901 2.02871 1.6936
upperback -0.940723 2.37351 2.90289
thorax 3.43552 1.19849 2.3876
lowerneck -19.8246 -5.55324 -12.8345
upperneck 22.431 -7.04471 12.3769
head 11.5425 -2.82649 5.63756
lclavicle -1.42332e-14 -1.78518e-14 0
lhumerus -45.3596 -9.90223 93.9239
lradius 24.6571 0 0
lwrist 2.70573 0 0
lhand -7.89551 -21.7111 0
lfingers 7.12502 0 0
lthumb 18.0084 7.46184 0
rclavicle -1.42332e-14 -1.78518e-14 0
rhumerus -35.1609 12.807 -87.2804
rradius 36.758 0 0
rwrist -15.1767 0 0
rhand -29.6418 -26.5061 0
rfingers 7.12502 0 0
rthumb -2.97149 -56.4645 0
425
root 10.1632 16.9854 23.6383 6.85574 -0.841293 -4.47758
lfemur -34.9964 2.36474 -17.8293
ltibia 25.3032 0 0
lfoot -9.33014 8.33449 0
ltoes -9.08035 0 0
rfemur 7.04115 2.96201 27.4761
rtibia 22.2162 0 0
rfoot -6.19359 1.89253 0
rtoes -16.92 0 0
lowerback -7.73603 1.91757 1.53368
upperback -0.96141 2.24181 2.84784
thorax 3.37031 1.13202 2.40502
lowerneck -19.8674 -5.50034 -12.7995
upperneck 22.4969 -6.96395 12.3155
head 11.5599 -2.79338 5.6238
lclavicle -1.5287e-14 -1.71149e-14 0
lhumerus -44.6691 -9.9732 93.7802
lradius 24.5146 0 0
lwrist 2.44548 0 0
lhand -8.01062 -21.7703 0
lfingers 7.12502 0 0
lthumb 17.8976 7.41232 0
rclavicle -1.5287e-14 -1.71149e-14 0
rhumerus -35.5206 12.7305 -87.3168
rradius 36.6712 0 0
rwrist -15.0866 0 0
rhand -29.6692 -26.6933 0
rfingers 7.12502 0 0
rthumb -2.99793 -56.6513 0
426
root 10.1864 17.0031 23.7826 6.79843 -0.786319 -4.23233
lfemur -34.4139 2.41794 -18.2186
ltibia 25.3442 0 0
lfoot -9.45556 8.20549 0
ltoes -8.7448 0 0
rfemur 6.07089 2.76551 27.097
rtibia 23.8031 0 0
rfoot -6.28707 1.52437 0
rtoes -17.0122 0 0
lowerback -7.65305 1.80644 1.37375
upperback -0.982098 2.1101 2.79279
thorax 3.3051 1.06554 2.42245
lowerneck -19.9102 -5.44745 -12.7644
upperneck 22.5628 -6.88319 12.2541
head 11.5774 -2.76027 5.61003
lclavicle -1.63408e-14 -1.63779e-14 0
lhumerus -43.9786 -10.0442 93.6364
lradius 24.372 0 0
lwrist 2.18523 0 0
lhand -8.12573 -21.8295 0
lfingers 7.12502 0 0
lthumb 17.7868 7.36281 0
rclavicle -1.63408e-14 -1.63779e-14 0
rhumerus -35.8802 12.6541 -87.3533
rradius 36.5844 0 0
rwrist -14.9964 0 0
rhand -29.6965 -26.8804 0
rfingers 7.12502 0 0
rthumb -3.02438 -56.8381 0
427
root 10.2095 17.0207 23.9269 6.74111 -0.731345 -3.98708
lfemur -33.8313 2.47115 -18.6078
ltibia 25.3853 0 0
lfoot -9.58097 8.07648 0
ltoes -8.40924 0 0
rfemur 5.10062 2.56901 26.7178
rtibia 25.39 0 0
rfoot -6.38056 1.15621 0
rtoes -17.1043 0 0
lowerback -7.57008 1.69531 1.21382
upperback -1.00279 1.9784 2.73774
thorax 3.23989 0.999066 2.43987
lowerneck -19.953 -5.39455 -12.7294
upperneck 22.6288 -6.80242 12.1926
head 11.5948 -2.72716 5.59626
lclavicle -1.73946e-14 -1.5641e-14 0
lhumerus -43.2882 -10.1151 93.4927
lradius 24.2294 0 0
lwrist 1.92497 0 0
lhand -8.24084 -21.8887 0
lfingers 7.12502 0 0
lthumb 17.6761 7.3133 0
rclavicle -1.73946e-14 -1.5641e-14 0
rhumerus -36.2398 12.5776 -87.3897
rradius 36.4976 0 0
rwrist -14.9063 0 0
rhand -29.7239 -27.0676 0
rfingers 7.12502 0 0
rthumb -3.05082 -57.0248 0
428
root 10.2327 17.0384 24.0713 6.68379 -0.676371 -3.74183
lfemur -33.2487 2.52435 -18.9971
ltibia 25.4263 0 0
lfoot -9.70638 7.94748 0
ltoes -8.07369 0 0
rfemur 4.13036 2.37251 26.3387
rtibia 26.9768 0 0
rfoot -6.47404 0.788053 0
rtoes -17.1965 0 0
lowerback -7.4871 1.58417 1.0539
upperback -1.02347 1.8467 2.68269
thorax 3.17468 0.932592 2.4573
lowerneck -19.9958 -5.34165 -12.6944
upperneck 22.6947 -6.72166 12.1312
head 11.6123 -2.69405 5.5825
lclavicle -1.84483e-14 -1.4904e-14 0
lhumerus -42.5977 -10.1861 93.349
lradius 24.0869 0 0
lwrist 1.66472 0 0
lhand -8.35595 -21.9479 0
lfingers 7.12502 0 0
lthumb 17.5653 7.26378 0
rclavicle -1.84483e-14 -1.4904e-14 0
rhumerus -36.5995 12.5011 -87.4262
rradius 36.4108 0 0
rwrist -14.8161 0 0
rhand -29.7513 -27.2548 0
rfingers 7.12502 0 0
rthumb -3.07727 -57.2116 0
429
root 10.2558 17.056 24.2156 6.62647 -0.621397 -3.49658
lfemur -32.6661 2.57755 -19.3864
ltibia 25.4673 0 0
lfoot -9.8318 7.81848 0
ltoes -7.73813 0 0
rfemur 3.1601 2.176 25.9596
rtibia 28.5637 0 0
rfoot -6.56752 0.419895 0
rtoes -17.2887 0 0
lowerback -7.40412 1.47304 0.893968
upperback -1.04416 1.715 2.62764
thorax 3.10947 0.866117 2.47472
lowerneck -20.0386 -5.28876 -12.6593
upperneck 22.7606 -6.64089 12.0697
head 11.6298 -2.66093 5.56873
lclavicle -1.95021e-14 -1.41671e-14 0
lhumerus -41.9072 -10.2571 93.2052
lradius 23.9443 0 0
lwrist 1.40447 0 0
lhand -8.47106 -22.007 0
lfingers 7.12502 0 0
lthumb 17.4545 7.21427 0
rclavicle -1.95021e-14 -1.41671e-14 0
rhumerus -36.9591 12.4246 -87.4626
rradius 36.324 0 0
rwrist -14.726 0 0
rhand -29.7787 -27.4419 0
rfingers 7.12502 0 0
rthumb -3.10372 -57.3984 0
430
root 10.279 17.0737 24.3599 6.56916 -0.566423 -3.25133
lfemur -32.0836 2.63076 -19.7757
ltibia 25.5083 0 0
lfoot -9.95721 7.68948 0
ltoes -7.40258 0 0
rfemur 2.18984 1.9795 25.5804
rtibia 30.1506 0 0
rfoot -6.661 0.0517371 0
rtoes -17.3808 0 0
lowerback -7.32115 1.36191 0.734041
upperback -1.06485 1.58329 2.57259
thorax 3.04426 0.799642 2.49215
lowerneck -20.0814 -5.23586 -12.6243
upperneck 22.8266 -6.56013 12.0083
head 11.6472 -2.62782 5.55496
lclavicle -2.05559e-14 -1.34301e-14 0
lhumerus -41.2168 -10.328 93.0615
lradius 23.8017 0 0
lwrist 1.14422 0 0
lhand -8.58617 -22.0662 0
lfingers 7.12502 0 0
lthumb 17.3437 7.16476 0
rclavicle -2.05559e-14 -1.34301e-14 0
rhumerus -37.3187 12.3481 -87.4991
rradius 36.2372 0 0
rwrist -14.6359 0 0
rhand -29.8061 -27.6291 0
rfingers 7.12502 0 0
rthumb -3.13016 -57.5852 0
431
root 10.3021 17.0914 24.5043 6.51184 -0.511449 -3.00608
lfemur -31.501 2.68396 -20.165
ltibia 25.5493 0 0
lfoot -10.0826 7.56048 0
ltoes -7.06703 0 0
rfemur 1.21958 1.783 25.2013
rtibia 31.7375 0 0
rfoot -6.75448 -0.316421 0
rtoes -17.473 0 0
lowerback -7.23817 1.25077 0.574114
upperback -1.08553 1.45159 2.51754
thorax 2.97905 0.733168 2.50957
lowerneck -20.1242 -5.18297 -12.5892
upperneck 22.8925 -6.47937 11.9469
head 11.6647 -2.59471 5.5412
lclavicle -2.16096e-14 -1.26931e-14 0
lhumerus -40.5263 -10.399 92.9177
lradius 23.6591 0 0
lwrist 0.88397 0 0
lhand -8.70128 -22.1254 0
lfingers 7.12502 0 0
lthumb 17.2329 7.11525 0
rclavicle -2.16096e-14 -1.26931e-14 0
rhumerus -37.6784 12.2716 -87.5355
rradius 36.1504 0 0
rwrist -14.5457 0 0
rhand -29.8335 -27.8163 0
rfingers 7.12502 0 0
rthumb -3.15661 -57.772 0
432
root 10.3253 17.109 24.6486 6.45452 -0.456475 -2.76082
lfemur -30.9184 2.73717 -20.5542
ltibia 25.5903 0 0
lfoot -10.208 7.43148 0
ltoes -6.73147 0 0
rfemur 0.24932 1.5865 24.8221
rtibia 33.3243 0 0
rfoot -6.84797 -0.684579 0
rtoes -17.5652 0 0
lowerback -7.15519 1.13964 0.414186
upperback -1.10622 1.31989 2.4625
thorax 2.91384 0.666693 2.527
lowerneck -20.167 -5.13007 -12.5542
upperneck 22.9584 -6.3986 11.8854
head 11.6821 -2.5616 5.52743
lclavicle -2.26634e-14 -1.19562e-14 0
lhumerus -39.8358 -10.47 92.774
lradius 23.5166 0 0
lwrist 0.62372 0 0
lhand -8.81639 -22.1846 0
lfingers 7.12502 0 0
lthumb 17.1221 7.06573 0
rclavicle -2.26634e-14 -1.19562e-14 0
rhumerus -38.038 12.1952 -87.572
rradius 36.0635 0 0
rwrist -14.4556 0 0
rhand -29.8608 -28.0034 0
rfingers 7.12502 0 0
rthumb -3.18305 -57.9587 0
433
root 10.3484 17.1267 24.793 6.3972 -0.401501 -2.51557
lfemur -30.3358 2.79037 -20.9435
ltibia 25.6313 0 0
lfoot -10.3334 7.30248 0
ltoes -6.39592 0 0
rfemur -0.720941 1.39 24.443
rtibia 34.9112 0 0
rfoot -6.94145 -1.05274 0
rtoes -17.6574 0 0
lowerback -7.07221 1.0285 0.254259
upperback -1.12691 1.18819 2.40745
thorax 2.84863 0.600219 2.54442
lowerneck -20.2098 -5.07718 -12.5191
upperneck 23.0243 -6.31784 11.824
head 11.6996 -2.52849 5.51367
lclavicle -2.37172e-14 -1.12192e-14 0
lhumerus -39.1453 -10.541 92.6302
lradius 23.374 0 0
lwrist 0.363469 0 0
lhand -8.9315 -22.2438 0
lfingers 7.12502 0 0
lthumb 17.0113 7.01622 0
rclavicle -2.37172e-14 -1.12192e-14 0
rhumerus -38.3977 12.1187 -87.6084
rradius 35.9767 0 0
rwrist -14.3654 0 0
rhand -29.8882 -28.1906 0
rfingers 7.12502 0 0
rthumb -3.2095 -58.1455 0
434
root 10.3716 17.1444 24.9373 6.33989 -0.346527 -2.27032
lfemur -29.7533 2.84358 -21.3328
ltibia 25.6723 0 0
lfoot -10.4589 7.17348 0
ltoes -6.06037 0 0
rfemur -1.6912 1.1935 24.0638
rtibia 36.4981 0 0
rfoot -7.03493 -1.4209 0
rtoes -17.7495 0 0
lowerback -6.98924 0.917371 0.0943317
upperback -1.1476 1.05648 2.3524
thorax 2.78342 0.533744 2.56185
lowerneck -20.2526 -5.02428 -12.4841
upperneck 23.0903 -6.23708 11.7626
head 11.717 -2.49538 5.4999
lclavicle -2.47709e-14 -1.04823e-14 0
lhumerus -38.4549 -10.6119 92.4865
lradius 23.2314 0 0
lwrist 0.103218 0 0
lhand -9.04661 -22.303 0
lfingers 7.12502 0 0
lthumb 16.9005 6.96671 0
rclavicle -2.47709e-14 -1.04823e-14 0
rhumerus -38.7573 12.0422 -87.6449
rradius 35.8899 0 0
rwrist -14.2753 0 0
rhand -29.9156 -28.3778 0
rfingers 7.12502 0 0
rthumb -3.23594 -58.3323 0
